<svg width="10" height="12" viewBox="0 0 10 12" fill="none" xmlns="http://www.w3.org/2000/svg">
<path fill-rule="evenodd" clip-rule="evenodd" d="M8.80544 9.99982L2.80544 5.99982L8.80544 1.99982C8.88423 1.94729 8.9519 1.87976 9.0046 1.80108C9.05729 1.72239 9.09397 1.6341 9.11254 1.54124C9.13111 1.44838 9.13121 1.35278 9.11284 1.25988C9.09446 1.16698 9.05796 1.07861 9.00543 0.999821C8.95291 0.921028 8.88537 0.853353 8.80669 0.800659C8.72801 0.747966 8.63972 0.711286 8.54686 0.692715C8.454 0.674143 8.35839 0.674043 8.26549 0.69242C8.1726 0.710797 8.08423 0.747293 8.00544 0.799821L1.20384 5.33422C1.09427 5.40728 1.00443 5.50626 0.942299 5.62237C0.880166 5.73848 0.847656 5.86813 0.847656 5.99982C0.847656 6.13151 0.880166 6.26117 0.942299 6.37728C1.00443 6.49339 1.09427 6.59236 1.20384 6.66542L8.00544 11.1998C8.08423 11.2524 8.1726 11.2888 8.26549 11.3072C8.35839 11.3256 8.454 11.3255 8.54686 11.3069C8.63972 11.2884 8.72801 11.2517 8.80669 11.199C8.88537 11.1463 8.95291 11.0786 9.00543 10.9998C9.05796 10.921 9.09446 10.8327 9.11284 10.7398C9.13121 10.6469 9.13111 10.5513 9.11254 10.4584C9.09397 10.3655 9.05729 10.2773 9.0046 10.1986C8.9519 10.1199 8.88423 10.0524 8.80544 9.99982Z" fill="white"/>
</svg>
