<svg width="10" height="12" viewBox="0 0 10 12" fill="none" xmlns="http://www.w3.org/2000/svg">
<path fill-rule="evenodd" clip-rule="evenodd" d="M1.20628 9.99982L7.20628 5.99982L1.20628 1.99982C1.12749 1.94729 1.05981 1.87976 1.00712 1.80108C0.954428 1.72239 0.917747 1.6341 0.899176 1.54124C0.880604 1.44838 0.880506 1.35278 0.898883 1.25988C0.91726 1.16698 0.953754 1.07861 1.00628 0.999821C1.05881 0.921028 1.12635 0.853353 1.20503 0.800659C1.28371 0.747966 1.372 0.711286 1.46486 0.692715C1.55772 0.674143 1.65333 0.674043 1.74622 0.69242C1.83912 0.710797 1.92749 0.747293 2.00628 0.799821L8.80788 5.33422C8.91745 5.40728 9.00729 5.50626 9.06942 5.62237C9.13155 5.73848 9.16406 5.86813 9.16406 5.99982C9.16406 6.13151 9.13155 6.26117 9.06942 6.37728C9.00729 6.49339 8.91745 6.59236 8.80788 6.66542L2.00628 11.1998C1.92749 11.2524 1.83912 11.2888 1.74622 11.3072C1.65333 11.3256 1.55772 11.3255 1.46486 11.3069C1.372 11.2884 1.28371 11.2517 1.20503 11.199C1.12635 11.1463 1.05881 11.0786 1.00628 10.9998C0.953754 10.921 0.91726 10.8327 0.898883 10.7398C0.880506 10.6469 0.880604 10.5513 0.899176 10.4584C0.917747 10.3655 0.954428 10.2773 1.00712 10.1986C1.05981 10.1199 1.12749 10.0524 1.20628 9.99982Z" fill="white"/>
</svg>
