<svg width="8" height="10" viewBox="0 0 8 10" fill="none" xmlns="http://www.w3.org/2000/svg">
<path fill-rule="evenodd" clip-rule="evenodd" d="M1.00388 8.23413L6.15364 4.80096L1.00388 1.36779C0.936251 1.3227 0.878165 1.26474 0.832939 1.1972C0.787712 1.12967 0.75623 1.05389 0.74029 0.974192C0.72435 0.894492 0.724265 0.812433 0.740038 0.7327C0.755812 0.652967 0.787135 0.577121 0.83222 0.509493C0.877305 0.441866 0.935268 0.383781 1.0028 0.338554C1.07033 0.293328 1.14611 0.261846 1.22581 0.245906C1.30551 0.229966 1.38757 0.22988 1.46731 0.245653C1.54704 0.261426 1.62289 0.29275 1.69051 0.337835L7.52828 4.22968C7.62232 4.29239 7.69942 4.37734 7.75275 4.47699C7.80608 4.57665 7.83398 4.68793 7.83398 4.80096C7.83398 4.91399 7.80608 5.02527 7.75275 5.12493C7.69942 5.22458 7.62232 5.30953 7.52828 5.37224L1.69051 9.26408C1.62289 9.30917 1.54704 9.34049 1.46731 9.35626C1.38757 9.37204 1.30551 9.37195 1.22581 9.35601C1.14611 9.34007 1.07033 9.30859 1.0028 9.26336C0.935268 9.21814 0.877305 9.16005 0.83222 9.09242C0.787135 9.0248 0.755812 8.94895 0.740038 8.86922C0.724265 8.78948 0.72435 8.70743 0.74029 8.62773C0.75623 8.54803 0.787712 8.47225 0.832939 8.40471C0.878165 8.33718 0.936251 8.27922 1.00388 8.23413Z" fill="white"/>
</svg>
