<svg width="119" height="23" viewBox="0 0 119 23" fill="none" xmlns="http://www.w3.org/2000/svg">
<path d="M39.7771 23C38.4943 23 37.5795 22.6109 37.0328 21.8329C36.507 21.0548 36.2442 19.9928 36.2442 18.6469V0.351318H39.8717V18.8362C39.8717 19.2778 39.9559 19.5932 40.1241 19.7825C40.2923 19.9507 40.4711 20.0348 40.6604 20.0348H40.8812C40.9653 20.0138 41.0809 19.9928 41.2281 19.9718L41.7013 22.6845C41.491 22.7687 41.2176 22.8423 40.8812 22.9054C40.5657 22.9684 40.1977 23 39.7771 23Z" fill="#1B353D"/>
<path d="M4.60544 21.7698C6.01441 22.5899 7.5811 23 9.30551 23C10.6304 23 11.829 22.7476 12.9015 22.2429C13.9951 21.7172 14.9624 20.9707 15.8036 20.0033L13.8479 17.7006C13.259 18.3315 12.6071 18.8467 11.8921 19.2462C11.1771 19.6248 10.357 19.814 9.43169 19.814C7.70728 19.814 6.32985 19.1516 5.29941 17.8268C4.26897 16.4809 3.75375 14.6303 3.75375 12.275C3.75375 10.7188 3.99559 9.38345 4.47926 8.26889C4.98397 7.15433 5.66742 6.30264 6.52963 5.71382C7.41286 5.10396 8.41176 4.79904 9.52632 4.79904C10.3254 4.79904 11.0404 4.96727 11.6713 5.30374C12.3232 5.61918 12.9121 6.05029 13.4378 6.59705L15.3935 4.23124C14.7416 3.53727 13.911 2.92742 12.9015 2.40169C11.8921 1.87595 10.7355 1.61308 9.43169 1.61308C7.70728 1.61308 6.13007 2.04419 4.70007 2.90639C3.27007 3.74757 2.12397 4.97779 1.26176 6.59705C0.420588 8.19529 0 10.1195 0 12.3696C0 14.6408 0.410073 16.5755 1.23022 18.1737C2.0714 19.7509 3.19647 20.9496 4.60544 21.7698Z" fill="#1B353D"/>
<path fill-rule="evenodd" clip-rule="evenodd" d="M21.6762 22.0537C22.7908 22.6845 23.9895 23 25.2723 23C26.5761 23 27.7853 22.6845 28.8998 22.0537C30.0144 21.4018 30.9186 20.4765 31.6126 19.2778C32.3066 18.0581 32.6536 16.5965 32.6536 14.8932C32.6536 13.1687 32.3066 11.7072 31.6126 10.5085C30.9186 9.28881 30.0144 8.36352 28.8998 7.73264C27.7853 7.08073 26.5761 6.75477 25.2723 6.75477C23.9895 6.75477 22.7908 7.08073 21.6762 7.73264C20.5617 8.36352 19.6574 9.28881 18.9634 10.5085C18.2695 11.7072 17.9225 13.1687 17.9225 14.8932C17.9225 16.5965 18.2695 18.0581 18.9634 19.2778C19.6574 20.4765 20.5617 21.4018 21.6762 22.0537ZM27.9535 18.6154C27.3016 19.5617 26.4078 20.0348 25.2723 20.0348C24.1367 20.0348 23.2429 19.5617 22.591 18.6154C21.9601 17.669 21.6447 16.4283 21.6447 14.8932C21.6447 13.337 21.9601 12.0857 22.591 11.1394C23.2429 10.1931 24.1367 9.71992 25.2723 9.71992C26.4078 9.71992 27.3016 10.1931 27.9535 11.1394C28.6054 12.0857 28.9314 13.337 28.9314 14.8932C28.9314 16.4283 28.6054 17.669 27.9535 18.6154Z" fill="#1B353D"/>
<path d="M45.7858 21.3912C46.5428 22.4637 47.752 23 49.4133 23C50.4648 23 51.3901 22.7581 52.1892 22.2745C52.9883 21.7908 53.7244 21.1494 54.3973 20.3503H54.4919L54.7758 22.6215H57.741V7.1333H54.1134V17.7321C53.5246 18.4892 52.9673 19.0359 52.4416 19.3724C51.9369 19.7089 51.3481 19.8771 50.6751 19.8771C49.8339 19.8771 49.2241 19.6143 48.8456 19.0885C48.467 18.5628 48.2778 17.6585 48.2778 16.3757V7.1333H44.6502V16.8489C44.6502 18.8046 45.0287 20.3187 45.7858 21.3912Z" fill="#1B353D"/>
<path d="M62.3358 22.6215V7.1333H65.3325L65.5849 9.24676H65.711C66.363 8.55279 67.0674 7.96396 67.8245 7.48029C68.6026 6.99661 69.4753 6.75477 70.4427 6.75477C71.5782 6.75477 72.4825 7.00712 73.1555 7.51183C73.8494 7.99551 74.3752 8.66845 74.7327 9.53065C75.4687 8.73154 76.2363 8.06911 77.0354 7.54338C77.8555 7.01764 78.7493 6.75477 79.7166 6.75477C81.3569 6.75477 82.5661 7.29102 83.3442 8.36352C84.1223 9.43602 84.5113 10.9501 84.5113 12.9059V22.6215H80.8522V13.379C80.8522 12.0962 80.6524 11.192 80.2529 10.6662C79.8744 10.1405 79.2855 9.87764 78.4864 9.87764C77.5191 9.87764 76.436 10.519 75.2374 11.8018V22.6215H71.6098V13.379C71.6098 12.0962 71.41 11.192 71.0105 10.6662C70.6319 10.1405 70.0326 9.87764 69.2124 9.87764C68.2451 9.87764 67.1621 10.519 65.9634 11.8018V22.6215H62.3358Z" fill="#1B353D"/>
<path d="M88.9204 7.1333V22.6215H92.5479V11.8018C93.1998 11.1709 93.7782 10.6978 94.2829 10.3823C94.8086 10.0459 95.4079 9.87764 96.0809 9.87764C96.9431 9.87764 97.5634 10.1405 97.942 10.6662C98.3205 11.192 98.5098 12.0962 98.5098 13.379V22.6215H102.137V12.9059C102.137 10.9501 101.759 9.43602 101.002 8.36352C100.245 7.29102 99.0355 6.75477 97.3742 6.75477C96.3227 6.75477 95.3869 6.99661 94.5668 7.48029C93.7466 7.96396 92.9896 8.54227 92.2956 9.21521H92.1694L91.9171 7.1333H88.9204Z" fill="#1B353D"/>
<path d="M111.018 7.62979C110.616 7.62979 110.263 7.90159 110.155 8.28851V8.28851C109.925 9.11486 108.785 9.22109 108.426 8.44191L107.231 5.84555C106.799 4.9088 107.811 3.96355 108.716 4.45799L111.447 5.94974C112.26 6.39402 111.945 7.62979 111.018 7.62979V7.62979Z" fill="#3B7586"/>
<path d="M108.698 10.9557C109.036 11.69 110.102 11.619 110.34 10.8463L110.935 8.91356C111.05 8.53828 111.4 8.28475 111.793 8.29191L113.675 8.32625C114.596 8.34305 114.922 7.11399 114.114 6.67249L108.611 3.66636C108.344 3.52076 108.324 3.14848 108.59 3.00099V3.00099C109.557 2.45423 110.609 2.18085 111.744 2.18085C113.048 2.18085 114.247 2.52783 115.34 3.2218C116.455 3.91577 117.338 4.98827 117.99 6.4393C118.663 7.8693 119 9.70937 119 11.9595C119 14.5461 118.631 16.6596 117.895 18.2999C117.159 19.9191 116.192 21.1073 114.993 21.8644C113.795 22.6214 112.501 23 111.113 23C109.915 23 108.874 22.7791 107.991 22.3375C107.378 22.0311 106.831 21.6791 106.349 21.2815C105.995 20.9885 105.986 20.463 106.291 20.1186L107.036 19.2775C107.391 18.8774 108.017 18.8887 108.448 19.2052C108.656 19.3586 108.883 19.4984 109.126 19.6247C109.715 19.8981 110.314 20.0348 110.924 20.0348C111.765 20.0348 112.533 19.8035 113.227 19.3408C113.921 18.8782 114.489 18.1106 114.93 17.0381C115.147 16.5019 115.315 15.8747 115.436 15.1564C115.574 14.3315 114.447 13.841 113.716 14.2481C113.669 14.2744 113.622 14.3001 113.574 14.3253C112.775 14.7459 112.007 14.9562 111.271 14.9562C109.547 14.9562 108.138 14.4515 107.044 13.4421C105.972 12.4117 105.436 10.845 105.436 8.74202C105.436 8.17596 105.486 7.64337 105.586 7.14427C105.73 6.43002 106.612 6.42641 106.917 7.08817L108.698 10.9557Z" fill="#0F756B"/>
</svg>
