<svg width="14" height="21" viewBox="0 0 14 21" fill="none" xmlns="http://www.w3.org/2000/svg">
<path d="M6.01813 5.62979C5.61646 5.62979 5.26286 5.90159 5.15503 6.28851V6.28851C4.92473 7.11486 3.7851 7.22109 3.42626 6.44191L2.23054 3.84555C1.79913 2.9088 2.81136 1.96355 3.71643 2.45799L6.44711 3.94974C7.26037 4.39402 6.94483 5.62979 6.01813 5.62979V5.62979Z" fill="#3B7586"/>
<path d="M3.69823 8.95565C4.03642 9.68999 5.10245 9.61897 5.34024 8.84625L5.93498 6.91356C6.05046 6.53828 6.40038 6.28475 6.79296 6.29191L8.67522 6.32625C9.59597 6.34305 9.92177 5.11399 9.11359 4.67249L3.61084 1.66636C3.34432 1.52076 3.32448 1.14848 3.58996 1.00099V1.00099C4.55731 0.454229 5.60878 0.180847 6.74437 0.180847C8.04819 0.180847 9.24687 0.527832 10.3404 1.2218C11.455 1.91577 12.3382 2.98827 12.9901 4.4393C13.663 5.8693 13.9995 7.70937 13.9995 9.95952C13.9995 12.5461 13.6315 14.6596 12.8955 16.2999C12.1594 17.9191 11.1921 19.1073 9.99341 19.8644C8.79474 20.6214 7.50143 21 6.11348 21C4.91481 21 3.87385 20.7791 2.99062 20.3375C2.37775 20.0311 1.83071 19.6791 1.34947 19.2815C0.994797 18.9885 0.986426 18.463 1.29145 18.1186L2.03643 17.2775C2.39077 16.8774 3.01703 16.8887 3.44769 17.2052C3.65644 17.3586 3.88262 17.4984 4.12621 17.6247C4.71503 17.8981 5.31437 18.0348 5.92422 18.0348C6.7654 18.0348 7.53297 17.8035 8.22694 17.3408C8.92091 16.8782 9.48871 16.1106 9.93033 15.0381C10.1469 14.5019 10.3154 13.8747 10.4359 13.1564C10.5742 12.3315 9.44713 11.841 8.71645 12.2481C8.66932 12.2744 8.62181 12.3001 8.57393 12.3253C7.77481 12.7459 7.00724 12.9562 6.27121 12.9562C4.5468 12.9562 3.13782 12.4515 2.04429 11.4421C0.971795 10.4117 0.435547 8.84496 0.435547 6.74202C0.435547 6.17596 0.485767 5.64337 0.586206 5.14427C0.729942 4.43002 1.61235 4.42641 1.91711 5.08817L3.69823 8.95565Z" fill="#0F756B"/>
</svg>
