<svg width="13" height="13" viewBox="0 0 13 13" fill="none" xmlns="http://www.w3.org/2000/svg">
<path fill-rule="evenodd" clip-rule="evenodd" d="M1.82455 3.50789C2.86411 1.88325 4.69059 0.807129 6.7679 0.807129C9.9976 0.807129 12.6231 3.40992 12.6231 6.62966C12.6231 8.84501 11.3802 10.7683 9.55266 11.7526V12.2417C9.55266 12.5633 9.29213 12.8239 8.97075 12.8239H7.80695C3.62905 12.8239 0.242188 9.43505 0.242188 5.25465V4.09014C0.242188 3.76857 0.502715 3.50789 0.824092 3.50789H1.82455ZM2.7217 4.41981C3.50706 3.0059 5.02347 2.04597 6.7679 2.04597C9.32193 2.04597 11.385 4.1022 11.385 6.62966C11.385 8.24592 10.5414 9.66947 9.26516 10.4858C9.2053 10.4507 9.13832 10.4258 9.06642 10.4138L6.48516 9.98337C6.23318 9.94135 5.98327 10.0687 5.86903 10.2973L5.41859 11.1987C3.80442 10.5487 2.51601 9.25957 1.86643 7.64443L2.7673 7.19373C2.99579 7.07941 3.12305 6.82935 3.08105 6.57722L2.7217 4.41981Z" fill="#1B353D"/>
<path d="M3.9138 8.3418V8.00698L5.17124 6.63049C5.31881 6.46928 5.44034 6.32915 5.53582 6.21011C5.63131 6.08982 5.70199 5.97697 5.74788 5.87156C5.795 5.76492 5.81856 5.65331 5.81856 5.53674C5.81856 5.40281 5.78632 5.28687 5.72183 5.1889C5.65859 5.09093 5.57178 5.01529 5.46142 4.96197C5.35105 4.90864 5.22704 4.88198 5.08939 4.88198C4.94306 4.88198 4.81534 4.91236 4.70621 4.97313C4.59832 5.03265 4.51462 5.11636 4.45509 5.22424C4.39681 5.33213 4.36767 5.45862 4.36767 5.60371H3.92868C3.92868 5.38049 3.98014 5.18456 4.08307 5.01591C4.186 4.84726 4.32612 4.71581 4.50346 4.62156C4.68203 4.52732 4.8823 4.48019 5.10427 4.48019C5.32749 4.48019 5.52528 4.52732 5.69765 4.62156C5.87002 4.71581 6.00519 4.84292 6.10316 5.00289C6.20112 5.16286 6.25011 5.34081 6.25011 5.53674C6.25011 5.67687 6.22469 5.8139 6.17384 5.94783C6.12424 6.08052 6.03743 6.22871 5.91343 6.3924C5.79066 6.55485 5.62015 6.75326 5.40189 6.98764L4.54624 7.90281V7.93258H6.31707V8.3418H3.9138Z" fill="#1B353D"/>
<path d="M6.91417 7.56055V7.18109L8.58828 4.53228H8.86357V5.12008H8.67756L7.41268 7.12156V7.15133H9.66715V7.56055H6.91417ZM8.70732 8.3418V4.53228H9.14631V8.3418H8.70732Z" fill="#1B353D"/>
</svg>
