<svg width="11" height="12" viewBox="0 0 11 12" fill="none" xmlns="http://www.w3.org/2000/svg">
<path d="M0.841229 0.548828C0.48342 0.548828 0.193359 0.841975 0.193359 1.20359V2.51311C0.193359 7.21411 3.96415 11.025 8.61566 11.025H9.9114C10.2692 11.025 10.5593 10.7319 10.5593 10.3703V8.96064C10.5593 8.64056 10.3303 8.3674 10.0179 8.31478L7.14404 7.83071C6.8635 7.78345 6.58526 7.92665 6.45806 8.18374L5.95657 9.19741C4.15941 8.4665 2.72495 7.01678 2.00173 5.2005L3.00472 4.69367C3.25912 4.56512 3.4008 4.28392 3.35404 4.00039L2.87506 1.09595C2.823 0.78023 2.55271 0.548828 2.23601 0.548828H0.841229Z" fill="#1B353D"/>
<path d="M5.70714 1.10607C5.09811 1.10607 4.60439 1.51432 4.60439 2.01793V3.84163C4.60439 4.34524 5.09811 4.75349 5.70714 4.75349H6.8099V6.12127L8.46404 4.75349H9.56679C10.1758 4.75349 10.6695 4.34524 10.6695 3.84163V2.01793C10.6695 1.51432 10.1758 1.10607 9.56679 1.10607H5.70714Z" fill="#1B353D"/>
</svg>
