<svg width="13" height="11" viewBox="0 0 13 11" fill="none" xmlns="http://www.w3.org/2000/svg">
<path fill-rule="evenodd" clip-rule="evenodd" d="M12.5302 1.98044C12.0732 2.17617 11.5863 2.30591 11.0787 2.36891C11.6009 2.06444 11.9995 1.58591 12.1869 1.00917C11.7 1.29271 11.1624 1.49291 10.5895 1.60471C10.1271 1.12391 9.46812 0.826172 8.74932 0.826172C7.35459 0.826172 6.23179 1.93171 6.23179 3.28691C6.23179 3.48191 6.24872 3.66944 6.29019 3.84791C4.19585 3.74817 2.34265 2.76791 1.09772 1.27471C0.880387 1.64291 0.752854 2.06444 0.752854 2.51817C0.752854 3.37017 1.20219 4.12544 1.87185 4.56271C1.46712 4.55517 1.07005 4.44044 0.733654 4.25971C0.733654 4.26717 0.733654 4.27691 0.733654 4.28671C0.733654 5.48217 1.60692 6.47517 2.75199 6.70391C2.54692 6.75871 2.32345 6.78491 2.09152 6.78491C1.93025 6.78491 1.76739 6.77591 1.61459 6.74291C1.94099 7.71717 2.86719 8.43344 3.96852 8.45671C3.11139 9.11144 2.02319 9.50591 0.845054 9.50591C0.638454 9.50591 0.440321 9.49691 0.242188 9.47217C1.35805 10.1749 2.68059 10.5762 4.10672 10.5762C8.74239 10.5762 11.2768 6.82617 11.2768 3.57571C11.2768 3.46691 11.2729 3.36191 11.2676 3.25771C11.7675 2.91117 12.1877 2.47844 12.5302 1.98044Z" fill="#1B353D"/>
</svg>
